HIERARCHY
ROOT Hips
{
	OFFSET 0.00000 0.00000 0.00000
	CHANNELS 6 Xposition Yposition Zposition Zrotation Yrotation Xrotation 
	JOINT LHipJoint
	{
		OFFSET 0 0 0
		CHANNELS 3 Zrotation Yrotation Xrotation
		JOINT LeftUpLeg
		{
			OFFSET 1.29432 -1.88279 0.59910
			CHANNELS 3 Zrotation Yrotation Xrotation
			JOINT LeftLeg
			{
				OFFSET 2.63039 -7.22694 0.00000
				CHANNELS 3 Zrotation Yrotation Xrotation
				JOINT LeftFoot
				{
					OFFSET 2.70674 -7.43672 0.00000
					CHANNELS 3 Zrotation Yrotation Xrotation
					JOINT LeftToeBase
					{
						OFFSET 0.15066 -0.41394 2.09027
						CHANNELS 3 Zrotation Yrotation Xrotation
						End Site
						{
							OFFSET 0.00000 -0.00000 1.07518
						}
					}
				}
			}
		}
	}
	JOINT RHipJoint
	{
		OFFSET 0 0 0
		CHANNELS 3 Zrotation Yrotation Xrotation
		JOINT RightUpLeg
		{
			OFFSET -1.37068 -1.88279 0.59910
			CHANNELS 3 Zrotation Yrotation Xrotation
			JOINT RightLeg
			{
				OFFSET -2.57023 -7.06166 0.00000
				CHANNELS 3 Zrotation Yrotation Xrotation
				JOINT RightFoot
				{
					OFFSET -2.76461 -7.59570 0.00000
					CHANNELS 3 Zrotation Yrotation Xrotation
					JOINT RightToeBase
					{
						OFFSET -0.24175 -0.64785 2.19719
						CHANNELS 3 Zrotation Yrotation Xrotation
						End Site
						{
							OFFSET -0.00000 -0.00000 1.14803
						}
					}
				}
			}
		}
	}
	JOINT LowerBack
	{
		OFFSET 0 0 0
		CHANNELS 3 Zrotation Yrotation Xrotation
		JOINT Spine
		{
			OFFSET -0.03138 2.03983 -0.23106
			CHANNELS 3 Zrotation Yrotation Xrotation
			JOINT Spine1
			{
				OFFSET -0.00325 2.06238 -0.06878
				CHANNELS 3 Zrotation Yrotation Xrotation
				JOINT Neck
				{
					OFFSET 0 0 0
					CHANNELS 3 Zrotation Yrotation Xrotation
					JOINT Neck1
					{
						OFFSET -0.00002 1.75318 0.18090
						CHANNELS 3 Zrotation Yrotation Xrotation
						JOINT Head
						{
							OFFSET 0.08806 1.75856 -0.25387
							CHANNELS 3 Zrotation Yrotation Xrotation
							End Site
							{
								OFFSET 0.02554 1.78597 -0.10684
							}
						}
					}
				}
				JOINT LeftShoulder
				{
					OFFSET 0 0 0
					CHANNELS 3 Zrotation Yrotation Xrotation
					JOINT LeftArm
					{
						OFFSET 3.09657 1.33597 -0.04414
						CHANNELS 3 Zrotation Yrotation Xrotation
						JOINT LeftForeArm
						{
							OFFSET 5.34298 -0.00000 -0.00000
							CHANNELS 3 Zrotation Yrotation Xrotation
							JOINT LeftHand
							{
								OFFSET 3.67262 -0.00000 -0.00000
								CHANNELS 3 Zrotation Yrotation Xrotation
								JOINT LeftFingerBase
								{
									OFFSET 0 0 0
									CHANNELS 3 Zrotation Yrotation Xrotation
									JOINT LeftHandIndex1
									{
										OFFSET 0.59930 -0.00000 -0.00000
										CHANNELS 3 Zrotation Yrotation Xrotation
										End Site
										{
											OFFSET 0.48317 -0.00000 -0.00000
										}
									}
								}
								JOINT LThumb
								{
									OFFSET 0 0 0
									CHANNELS 3 Zrotation Yrotation Xrotation
									End Site
									{
										OFFSET 0.49055 -0.00000 0.49055
									}
								}
							}
						}
					}
				}
				JOINT RightShoulder
				{
					OFFSET 0 0 0
					CHANNELS 3 Zrotation Yrotation Xrotation
					JOINT RightArm
					{
						OFFSET -3.16460 1.32273 -0.23382
						CHANNELS 3 Zrotation Yrotation Xrotation
						JOINT RightForeArm
						{
							OFFSET -5.54967 -0.01834 0.03348
							CHANNELS 3 Zrotation Yrotation Xrotation
							JOINT RightHand
							{
								OFFSET -3.69401 -0.00000 0.00000
								CHANNELS 3 Zrotation Yrotation Xrotation
								JOINT RightFingerBase
								{
									OFFSET 0 0 0
									CHANNELS 3 Zrotation Yrotation Xrotation
									JOINT RightHandIndex1
									{
										OFFSET -0.63811 -0.00000 0.00000
										CHANNELS 3 Zrotation Yrotation Xrotation
										End Site
										{
											OFFSET -0.51446 -0.00000 0.00000
										}
									}
								}
								JOINT RThumb
								{
									OFFSET 0 0 0
									CHANNELS 3 Zrotation Yrotation Xrotation
									End Site
									{
										OFFSET -0.52232 -0.00000 0.52232
									}
								}
							}
						}
					}
				}
			}
		}
	}
}
MOTION
Frames: 8
Frame Time: .0083333
10.4649 18.8674 10.3386 0 0 0 0 0 0 -21 0 0 0 0 0 0 0 0 0 0 0 0 0 0 21 0 0 0 0 0 0 0 0 0 0 0 0 0 0 0 0 0 0 0 0 0 0 -16 0 0 21 0 0 11 0 0 0 -8 0 0 0 0 0 0 0 0 0 0 0 0 0 0 0 0 0 0 0 0 8 0 0 0 0 0 0 0 0 0 0 0 0 0 0 0 0 0
10.4649 18.8674 10.3386 57.3250 -83.9428 -51.7257 0.0000 0.0000 0.0000 -21.3205 -3.8460 -1.1750 0.3051 3.5512 9.8172 0.3482 -4.0237 -10.4927 0.5423 4.7180 13.1060 0.0000 0.0000 0.0000 9.8238 -1.5841 6.1987 0.0000 0.0000 -0.0000 0.0274 -7.1011 -9.4597 -0.1657 2.6224 -7.2291 -4.8187 5.0267 -7.3296 -8.9737 7.0078 -1.7467 -6.0102 3.3583 2.8404 -9.0946 -7.1905 -5.1388 21.4886 -16.3913 26.6434 7.5425 -6.9640 12.3056 0.0000 -0.0000 0.0000 -97.2944 29.7121 7.6694 29.9089 -40.8152 -11.3500 -0.0000 0.0000 -58.8484 -13.5068 42.4965 -9.2169 -7.1250 0.0000 -0.0000 -60.6590 62.2375 -31.1940 0.0000 -0.0000 0.0000 96.6093 -8.9452 16.1592 -16.2492 25.8574 -3.7540 0.0000 0.0000 24.2366 -19.5401 22.1614 -7.6252 7.1250 -0.0000 -0.0000 5.8477 -6.7075 5.1522
10.4622 18.8598 10.3364 54.1876 -83.9768 -48.5619 0.0000 0.0000 0.0000 -21.0578 -4.2207 -0.7902 0.2560 3.2554 8.9907 0.3301 -3.1039 -10.2286 0.2565 3.2587 9.0000 0.0000 0.0000 0.0000 10.2701 -1.5340 5.4293 -0.0064 -0.5151 1.4155 -0.0158 -6.9459 -10.2748 -0.1825 2.7519 -7.5887 -4.6382 4.9133 -7.4680 -8.8812 6.8704 -1.6786 -6.0110 3.2935 2.9889 -9.2361 -7.2064 -5.0961 21.6805 -16.4129 26.4659 7.6365 -6.9824 12.2648 -0.0000 -0.0000 0.0000 -97.4759 30.1245 7.7738 30.4002 -41.2340 -11.6725 -0.0000 0.0000 -59.1087 -14.8691 42.5647 -10.1813 -7.1250 0.0000 -0.0000 -61.8835 61.9044 -31.6276 -0.0000 -0.0000 0.0000 96.7000 -8.9125 16.0954 -16.2759 25.8934 -3.7657 0.0000 0.0000 24.0483 -19.7591 22.3367 -7.7739 7.1250 -0.0000 -0.0000 5.7240 -6.4930 5.0659
10.4594 18.8421 10.3389 57.2555 -84.2064 -51.6343 0.0000 0.0000 0.0000 -21.1256 -4.1627 -1.0265 0.2637 3.3035 9.1249 0.3273 -2.2845 -10.2576 0.0140 0.7627 2.0962 0.0000 0.0000 0.0000 10.0696 -1.4408 6.2428 0.0000 -0.0000 0.0000 0.0254 -7.1379 -9.5660 -0.1785 2.7216 -7.5046 -4.6487 5.0222 -7.5895 -8.8445 7.0309 -1.6631 -5.9376 3.3727 3.0793 -9.2842 -7.1805 -4.9278 21.7000 -16.3009 26.2166 7.6608 -6.9510 12.1077 -0.0000 -0.0000 0.0000 -97.6125 30.4893 7.7502 30.5771 -41.3829 -11.7893 -0.0000 0.0000 -58.0760 -19.0383 41.1463 -12.7923 -7.1250 0.0000 -0.0000 -63.2183 60.0187 -29.8719 -0.0000 -0.0000 0.0000 96.6581 -8.9309 15.6359 -16.2727 25.8890 -3.7643 0.0000 0.0000 24.7411 -19.5980 22.9922 -7.9175 7.1250 -0.0000 -0.0000 5.8784 -5.8403 5.2783
10.4501 18.8631 10.3431 63.0085 -84.2456 -57.4709 0.0000 0.0000 0.0000 -21.3712 -3.7353 -0.5722 0.2641 3.3061 9.1322 0.3396 -3.4818 -10.3625 0.4829 4.4560 12.3634 0.0000 0.0000 0.0000 9.7234 -0.9651 6.4192 0.0000 -0.0000 0.0000 0.0224 -7.0995 -9.5841 -0.1564 2.5483 -7.0236 -4.9323 5.1641 -7.5850 -8.8669 7.2369 -1.6490 -5.7828 3.4692 3.0740 -9.4178 -7.2178 -4.7232 21.7038 -16.2748 25.9788 7.6828 -6.9706 11.9731 0.0000 -0.0000 0.0000 -97.8025 30.9760 7.8815 30.9590 -41.7013 -12.0425 -0.0000 0.0000 -57.4841 -17.0143 40.7767 -11.3019 -7.1250 0.0000 -0.0000 -61.0559 60.3293 -28.7979 0.0000 -0.0000 0.0000 96.4100 -9.0533 15.7803 -16.3283 25.9638 -3.7885 0.0000 0.0000 24.8856 -19.8278 22.9697 -8.0095 7.1250 -0.0000 -0.0000 5.7332 -5.8277 5.1478
10.4532 18.8672 10.3436 64.4669 -84.1539 -59.0231 0.0000 0.0000 0.0000 -21.5088 -3.8519 -0.3898 0.2746 3.3706 9.3123 0.3516 -3.8398 -10.5418 0.8774 5.9717 16.7023 0.0000 0.0000 0.0000 9.5313 -0.8989 6.5155 0.0000 0.0000 -0.0000 0.0207 -7.0445 -9.5457 -0.1456 2.4588 -6.7755 -5.0797 5.1987 -7.4402 -8.8960 7.2802 -1.6134 -5.7392 3.4887 3.0187 -9.5454 -7.3233 -4.6758 21.7829 -16.4293 25.9083 7.7121 -7.0537 11.9896 0.0000 0.0000 0.0000 -97.8495 31.5157 8.3336 31.5541 -42.1888 -12.4403 -0.0000 0.0000 -57.5357 -17.4936 40.6397 -11.6002 -7.1250 0.0000 -0.0000 -61.2598 60.1280 -28.6484 0.0000 0.0000 0.0000 96.2593 -9.0971 16.0061 -16.3600 26.0063 -3.8024 0.0000 0.0000 24.5565 -19.8813 22.4460 -7.8613 7.1250 -0.0000 -0.0000 5.6561 -6.3611 5.0197
10.4545 18.8683 10.3439 61.8192 -84.2297 -56.3496 0.0000 0.0000 0.0000 -21.2442 -4.3786 -0.5591 0.3025 3.5365 9.7762 0.3649 -3.8135 -10.7401 0.9910 6.3358 17.7619 0.0000 0.0000 0.0000 9.7656 -1.0741 6.4405 0.0000 0.0000 -0.0000 0.0219 -7.0205 -9.4781 -0.1495 2.4916 -6.8663 -4.8221 5.1873 -7.4060 -8.8854 7.2474 -1.6208 -5.8763 3.4782 3.0209 -9.5832 -7.4074 -4.6805 21.8457 -16.5896 25.9458 7.7222 -7.1264 12.0529 0.0000 0.0000 0.0000 -97.6740 32.0743 8.9692 32.0698 -42.6028 -12.7881 -0.0000 0.0000 -57.2743 -17.3971 40.4100 -11.4814 -7.1250 0.0000 -0.0000 -60.8652 60.0204 -28.2192 0.0000 0.0000 0.0000 96.3454 -9.1558 15.7245 -16.3967 26.0556 -3.8185 0.0000 0.0000 24.5555 -19.5361 22.3974 -7.6997 7.1250 -0.0000 -0.0000 5.8688 -6.4642 5.1988
10.4508 18.8738 10.3414 58.9996 -84.4512 -53.4215 0.0000 0.0000 0.0000 -20.8188 -4.3066 -0.7811 0.3062 3.5578 9.8358 0.3605 -4.1533 -10.6785 1.0588 6.5424 18.3665 0.0000 0.0000 0.0000 10.1800 -1.1464 6.2872 0.0000 0.0000 -0.0000 0.0245 -7.0464 -9.4501 -0.1545 2.5330 -6.9812 -4.5338 5.1643 -7.5356 -8.7958 7.2117 -1.6501 -5.9328 3.4665 3.0843 -9.5472 -7.4328 -4.6836 21.8045 -16.6258 25.9660 7.6932 -7.1414 12.0615 0.0000 -0.0000 0.0000 -97.5403 32.5178 9.5573 32.5261 -42.9626 -13.0980 -0.0000 0.0000 -57.1824 -9.4909 41.1714 -6.2805 -7.1250 0.0000 -0.0000 -55.2697 62.5475 -27.8363 0.0000 -0.0000 0.0000 96.5273 -9.1386 14.9499 -16.3521 25.9957 -3.7990 0.0000 0.0000 25.1289 -19.4656 22.7503 -7.7831 7.1250 -0.0000 -0.0000 5.9413 -6.1104 5.3044
